<svg xmlns="http://www.w3.org/2000/svg" viewBox="0 0 160 160">
<rect width="160" height="160" fill="#171613"/><path d="M20 122 C44 48 72 142 103 62 S140 34 146 105" fill="none" stroke="#8C6BC9" stroke-width="20" stroke-linecap="round" opacity=".24"/><g><circle cx="20.0" cy="88.0" r="12.0" fill="#8C6BC9" opacity="0.85"/><circle cx="24.8" cy="104.2" r="11.8" fill="#8C6BC9" opacity="0.83"/><circle cx="29.6" cy="116.9" r="11.6" fill="#8C6BC9" opacity="0.82"/><circle cx="34.4" cy="123.5" r="11.3" fill="#8C6BC9" opacity="0.80"/><circle cx="39.3" cy="122.5" r="11.1" fill="#8C6BC9" opacity="0.78"/><circle cx="44.1" cy="114.2" r="10.9" fill="#8C6BC9" opacity="0.77"/><circle cx="48.9" cy="100.3" r="10.7" fill="#8C6BC9" opacity="0.75"/><circle cx="53.7" cy="83.8" r="10.4" fill="#8C6BC9" opacity="0.73"/><circle cx="58.5" cy="68.2" r="10.2" fill="#8C6BC9" opacity="0.72"/><circle cx="63.3" cy="56.8" r="10.0" fill="#8C6BC9" opacity="0.70"/><circle cx="68.1" cy="52.1" r="9.8" fill="#8C6BC9" opacity="0.68"/><circle cx="73.0" cy="54.9" r="9.6" fill="#8C6BC9" opacity="0.67"/><circle cx="77.8" cy="64.9" r="9.3" fill="#8C6BC9" opacity="0.65"/><circle cx="82.6" cy="79.7" r="9.1" fill="#8C6BC9" opacity="0.63"/><circle cx="87.4" cy="96.3" r="8.9" fill="#8C6BC9" opacity="0.62"/><circle cx="92.2" cy="111.1" r="8.7" fill="#8C6BC9" opacity="0.60"/><circle cx="97.0" cy="121.1" r="8.4" fill="#8C6BC9" opacity="0.58"/><circle cx="101.9" cy="123.9" r="8.2" fill="#8C6BC9" opacity="0.57"/><circle cx="106.7" cy="119.2" r="8.0" fill="#8C6BC9" opacity="0.55"/><circle cx="111.5" cy="107.8" r="7.8" fill="#8C6BC9" opacity="0.53"/><circle cx="116.3" cy="92.2" r="7.6" fill="#8C6BC9" opacity="0.52"/><circle cx="121.1" cy="75.7" r="7.3" fill="#8C6BC9" opacity="0.50"/><circle cx="125.9" cy="61.8" r="7.1" fill="#8C6BC9" opacity="0.48"/><circle cx="130.7" cy="53.5" r="6.9" fill="#8C6BC9" opacity="0.47"/><circle cx="135.6" cy="52.5" r="6.7" fill="#8C6BC9" opacity="0.45"/><circle cx="140.4" cy="59.1" r="6.4" fill="#8C6BC9" opacity="0.43"/><circle cx="145.2" cy="71.8" r="6.2" fill="#8C6BC9" opacity="0.42"/><circle cx="150.0" cy="88.0" r="6.0" fill="#8C6BC9" opacity="0.40"/></g>
</svg>
