<svg xmlns="http://www.w3.org/2000/svg" viewBox="0 0 160 160">
<rect width="160" height="160" fill="#0B1020"/><g><circle cx="80.0" cy="110.1" r="3" fill="#5B6FE8" opacity="0.25"/><circle cx="93.0" cy="114.4" r="3" fill="#7CA6FF" opacity="0.26"/><circle cx="105.3" cy="117.8" r="3" fill="#C4956E" opacity="0.27"/><circle cx="116.1" cy="120.2" r="3" fill="#E07A52" opacity="0.28"/><circle cx="124.9" cy="121.6" r="3" fill="#8C6BC9" opacity="0.29"/><circle cx="131.1" cy="122.0" r="3" fill="#5B6FE8" opacity="0.30"/><circle cx="134.5" cy="121.3" r="3" fill="#7CA6FF" opacity="0.31"/><circle cx="134.7" cy="119.6" r="3" fill="#C4956E" opacity="0.32"/><circle cx="131.9" cy="116.8" r="3" fill="#E07A52" opacity="0.33"/><circle cx="126.1" cy="113.2" r="3" fill="#8C6BC9" opacity="0.34"/><circle cx="117.7" cy="108.7" r="3" fill="#5B6FE8" opacity="0.35"/><circle cx="107.2" cy="103.4" r="3" fill="#7CA6FF" opacity="0.36"/><circle cx="95.1" cy="97.6" r="3" fill="#C4956E" opacity="0.37"/><circle cx="82.2" cy="91.4" r="3" fill="#E07A52" opacity="0.38"/><circle cx="69.1" cy="84.8" r="3" fill="#8C6BC9" opacity="0.39"/><circle cx="56.7" cy="78.1" r="3" fill="#5B6FE8" opacity="0.40"/><circle cx="45.6" cy="71.5" r="3" fill="#7CA6FF" opacity="0.41"/><circle cx="36.4" cy="65.1" r="3" fill="#C4956E" opacity="0.42"/><circle cx="29.7" cy="59.1" r="3" fill="#E07A52" opacity="0.43"/><circle cx="25.9" cy="53.6" r="3" fill="#8C6BC9" opacity="0.44"/><circle cx="25.1" cy="48.7" r="3" fill="#5B6FE8" opacity="0.45"/><circle cx="27.4" cy="44.7" r="3" fill="#7CA6FF" opacity="0.46"/><circle cx="32.7" cy="41.5" r="3" fill="#C4956E" opacity="0.47"/><circle cx="40.7" cy="39.3" r="3" fill="#E07A52" opacity="0.48"/><circle cx="50.9" cy="38.2" r="3" fill="#8C6BC9" opacity="0.49"/><circle cx="62.8" cy="38.1" r="3" fill="#5B6FE8" opacity="0.50"/><circle cx="75.6" cy="39.0" r="3" fill="#7CA6FF" opacity="0.51"/><circle cx="88.7" cy="41.0" r="3" fill="#C4956E" opacity="0.52"/><circle cx="101.3" cy="44.0" r="3" fill="#E07A52" opacity="0.53"/><circle cx="112.7" cy="47.9" r="3" fill="#8C6BC9" opacity="0.54"/><circle cx="122.2" cy="52.6" r="3" fill="#5B6FE8" opacity="0.55"/><circle cx="129.3" cy="58.0" r="3" fill="#7CA6FF" opacity="0.56"/><circle cx="133.7" cy="63.9" r="3" fill="#C4956E" opacity="0.57"/><circle cx="135.0" cy="70.3" r="3" fill="#E07A52" opacity="0.58"/><circle cx="133.2" cy="76.9" r="3" fill="#8C6BC9" opacity="0.59"/><circle cx="128.3" cy="83.5" r="3" fill="#5B6FE8" opacity="0.60"/><circle cx="120.8" cy="90.1" r="3" fill="#7CA6FF" opacity="0.61"/><circle cx="110.9" cy="96.4" r="3" fill="#C4956E" opacity="0.62"/><circle cx="99.3" cy="102.4" r="3" fill="#E07A52" opacity="0.63"/><circle cx="86.5" cy="107.7" r="3" fill="#8C6BC9" opacity="0.64"/><circle cx="73.5" cy="112.4" r="3" fill="#5B6FE8" opacity="0.65"/><circle cx="60.7" cy="116.2" r="3" fill="#7CA6FF" opacity="0.66"/><circle cx="49.1" cy="119.1" r="3" fill="#C4956E" opacity="0.67"/><circle cx="39.2" cy="121.0" r="3" fill="#E07A52" opacity="0.68"/><circle cx="31.7" cy="121.9" r="3" fill="#8C6BC9" opacity="0.69"/><circle cx="26.8" cy="121.8" r="3" fill="#5B6FE8" opacity="0.70"/><circle cx="25.0" cy="120.6" r="3" fill="#7CA6FF" opacity="0.71"/><circle cx="26.3" cy="118.3" r="3" fill="#C4956E" opacity="0.72"/><circle cx="30.7" cy="115.1" r="3" fill="#E07A52" opacity="0.73"/><circle cx="37.8" cy="111.0" r="3" fill="#8C6BC9" opacity="0.74"/><circle cx="47.3" cy="106.1" r="3" fill="#5B6FE8" opacity="0.75"/><circle cx="58.7" cy="100.6" r="3" fill="#7CA6FF" opacity="0.76"/><circle cx="71.3" cy="94.5" r="3" fill="#C4956E" opacity="0.77"/><circle cx="84.4" cy="88.1" r="3" fill="#E07A52" opacity="0.78"/><circle cx="97.2" cy="81.5" r="3" fill="#8C6BC9" opacity="0.79"/><circle cx="109.1" cy="74.8" r="3" fill="#5B6FE8" opacity="0.80"/><circle cx="119.3" cy="68.3" r="3" fill="#7CA6FF" opacity="0.81"/><circle cx="127.3" cy="62.0" r="3" fill="#C4956E" opacity="0.82"/><circle cx="132.6" cy="56.2" r="3" fill="#E07A52" opacity="0.83"/><circle cx="134.9" cy="51.1" r="3" fill="#8C6BC9" opacity="0.84"/><circle cx="134.1" cy="46.6" r="3" fill="#5B6FE8" opacity="0.85"/><circle cx="130.3" cy="43.0" r="3" fill="#7CA6FF" opacity="0.86"/><circle cx="123.6" cy="40.3" r="3" fill="#C4956E" opacity="0.87"/><circle cx="114.4" cy="38.6" r="3" fill="#E07A52" opacity="0.88"/><circle cx="103.3" cy="38.0" r="3" fill="#8C6BC9" opacity="0.89"/><circle cx="90.9" cy="38.4" r="3" fill="#5B6FE8" opacity="0.90"/><circle cx="77.8" cy="39.9" r="3" fill="#7CA6FF" opacity="0.91"/><circle cx="64.9" cy="42.4" r="3" fill="#C4956E" opacity="0.92"/><circle cx="52.8" cy="45.8" r="3" fill="#E07A52" opacity="0.93"/><circle cx="42.3" cy="50.1" r="3" fill="#8C6BC9" opacity="0.94"/><circle cx="33.9" cy="55.2" r="3" fill="#5B6FE8" opacity="0.95"/><circle cx="28.1" cy="60.9" r="3" fill="#7CA6FF" opacity="0.96"/><circle cx="25.3" cy="67.0" r="3" fill="#C4956E" opacity="0.97"/><circle cx="25.5" cy="73.5" r="3" fill="#E07A52" opacity="0.98"/><circle cx="28.9" cy="80.2" r="3" fill="#8C6BC9" opacity="0.99"/><circle cx="35.1" cy="86.8" r="3" fill="#5B6FE8" opacity="1.00"/><circle cx="43.9" cy="93.3" r="3" fill="#7CA6FF" opacity="1.01"/><circle cx="54.7" cy="99.5" r="3" fill="#C4956E" opacity="1.02"/><circle cx="67.0" cy="105.1" r="3" fill="#E07A52" opacity="1.03"/><circle cx="80.0" cy="110.1" r="3" fill="#8C6BC9" opacity="1.04"/></g>
</svg>
