<svg xmlns="http://www.w3.org/2000/svg" viewBox="0 0 160 160">
<rect width="160" height="160" fill="#171613"/><g><circle cx="55.0" cy="136.0" r="5.0" fill="#E07A52" opacity=".86"/><circle cx="65.0" cy="136.0" r="5.0" fill="#5B6FE8" opacity=".86"/><circle cx="75.0" cy="136.0" r="5.0" fill="#C4956E" opacity=".86"/><circle cx="85.0" cy="136.0" r="5.0" fill="#8C6BC9" opacity=".86"/><circle cx="95.0" cy="136.0" r="5.0" fill="#4E9F92" opacity=".86"/><circle cx="105.0" cy="136.0" r="5.0" fill="#D1694E" opacity=".86"/><circle cx="50.0" cy="121.3" r="4.7" fill="#E07A52" opacity=".86"/><circle cx="62.0" cy="121.3" r="4.7" fill="#5B6FE8" opacity=".86"/><circle cx="74.0" cy="121.3" r="4.7" fill="#C4956E" opacity=".86"/><circle cx="86.0" cy="121.3" r="4.7" fill="#8C6BC9" opacity=".86"/><circle cx="98.0" cy="121.3" r="4.7" fill="#4E9F92" opacity=".86"/><circle cx="110.0" cy="121.3" r="4.7" fill="#D1694E" opacity=".86"/><circle cx="45.0" cy="111.2" r="4.3" fill="#E07A52" opacity=".86"/><circle cx="59.0" cy="111.2" r="4.3" fill="#5B6FE8" opacity=".86"/><circle cx="73.0" cy="111.2" r="4.3" fill="#C4956E" opacity=".86"/><circle cx="87.0" cy="111.2" r="4.3" fill="#8C6BC9" opacity=".86"/><circle cx="101.0" cy="111.2" r="4.3" fill="#4E9F92" opacity=".86"/><circle cx="115.0" cy="111.2" r="4.3" fill="#D1694E" opacity=".86"/><circle cx="40.0" cy="105.7" r="4.0" fill="#E07A52" opacity=".86"/><circle cx="56.0" cy="105.7" r="4.0" fill="#5B6FE8" opacity=".86"/><circle cx="72.0" cy="105.7" r="4.0" fill="#C4956E" opacity=".86"/><circle cx="88.0" cy="105.7" r="4.0" fill="#8C6BC9" opacity=".86"/><circle cx="104.0" cy="105.7" r="4.0" fill="#4E9F92" opacity=".86"/><circle cx="120.0" cy="105.7" r="4.0" fill="#D1694E" opacity=".86"/><circle cx="35.0" cy="104.8" r="3.6" fill="#E07A52" opacity=".86"/><circle cx="53.0" cy="104.8" r="3.6" fill="#5B6FE8" opacity=".86"/><circle cx="71.0" cy="104.8" r="3.6" fill="#C4956E" opacity=".86"/><circle cx="89.0" cy="104.8" r="3.6" fill="#8C6BC9" opacity=".86"/><circle cx="107.0" cy="104.8" r="3.6" fill="#4E9F92" opacity=".86"/><circle cx="125.0" cy="104.8" r="3.6" fill="#D1694E" opacity=".86"/><circle cx="30.0" cy="108.5" r="3.3" fill="#E07A52" opacity=".86"/><circle cx="50.0" cy="108.5" r="3.3" fill="#5B6FE8" opacity=".86"/><circle cx="70.0" cy="108.5" r="3.3" fill="#C4956E" opacity=".86"/><circle cx="90.0" cy="108.5" r="3.3" fill="#8C6BC9" opacity=".86"/><circle cx="110.0" cy="108.5" r="3.3" fill="#4E9F92" opacity=".86"/><circle cx="130.0" cy="108.5" r="3.3" fill="#D1694E" opacity=".86"/><circle cx="25.0" cy="116.8" r="2.9" fill="#E07A52" opacity=".86"/><circle cx="47.0" cy="116.8" r="2.9" fill="#5B6FE8" opacity=".86"/><circle cx="69.0" cy="116.8" r="2.9" fill="#C4956E" opacity=".86"/><circle cx="91.0" cy="116.8" r="2.9" fill="#8C6BC9" opacity=".86"/><circle cx="113.0" cy="116.8" r="2.9" fill="#4E9F92" opacity=".86"/><circle cx="135.0" cy="116.8" r="2.9" fill="#D1694E" opacity=".86"/></g>
</svg>
