<svg xmlns="http://www.w3.org/2000/svg" viewBox="0 0 160 160">
<rect width="160" height="160" fill="#05070B"/><g><circle cx="84.0" cy="80.0" r="2" fill="#5B6FE8" opacity=".85"/><circle cx="84.4" cy="81.9" r="2" fill="#7CA6FF" opacity=".85"/><circle cx="83.7" cy="84.1" r="2" fill="#C4956E" opacity=".85"/><circle cx="81.9" cy="86.0" r="2" fill="#E07A52" opacity=".85"/><circle cx="79.2" cy="87.1" r="2" fill="#8C6BC9" opacity=".85"/><circle cx="76.0" cy="86.8" r="2" fill="#5B6FE8" opacity=".85"/><circle cx="72.9" cy="85.1" r="2" fill="#7CA6FF" opacity=".85"/><circle cx="70.7" cy="81.9" r="2" fill="#C4956E" opacity=".85"/><circle cx="70.0" cy="77.8" r="2" fill="#E07A52" opacity=".85"/><circle cx="71.2" cy="73.4" r="2" fill="#8C6BC9" opacity=".85"/><circle cx="74.2" cy="69.7" r="2" fill="#5B6FE8" opacity=".85"/><circle cx="78.8" cy="67.5" r="2" fill="#7CA6FF" opacity=".85"/><circle cx="84.3" cy="67.4" r="2" fill="#C4956E" opacity=".85"/><circle cx="89.6" cy="69.6" r="2" fill="#E07A52" opacity=".85"/><circle cx="93.7" cy="74.1" r="2" fill="#8C6BC9" opacity=".85"/><circle cx="95.7" cy="80.3" r="2" fill="#5B6FE8" opacity=".85"/><circle cx="94.9" cy="87.0" r="2" fill="#7CA6FF" opacity=".85"/><circle cx="91.3" cy="93.0" r="2" fill="#C4956E" opacity=".85"/><circle cx="85.2" cy="97.3" r="2" fill="#E07A52" opacity=".85"/><circle cx="77.6" cy="98.7" r="2" fill="#8C6BC9" opacity=".85"/><circle cx="69.8" cy="96.8" r="2" fill="#5B6FE8" opacity=".85"/><circle cx="63.2" cy="91.6" r="2" fill="#7CA6FF" opacity=".85"/><circle cx="59.2" cy="83.9" r="2" fill="#C4956E" opacity=".85"/><circle cx="58.7" cy="74.9" r="2" fill="#E07A52" opacity=".85"/><circle cx="62.0" cy="66.2" r="2" fill="#8C6BC9" opacity=".85"/><circle cx="68.8" cy="59.3" r="2" fill="#5B6FE8" opacity=".85"/><circle cx="78.2" cy="55.8" r="2" fill="#7CA6FF" opacity=".85"/><circle cx="88.5" cy="56.4" r="2" fill="#C4956E" opacity=".85"/><circle cx="97.9" cy="61.3" r="2" fill="#E07A52" opacity=".85"/><circle cx="104.7" cy="70.0" r="2" fill="#8C6BC9" opacity=".85"/><circle cx="107.4" cy="80.9" r="2" fill="#5B6FE8" opacity=".85"/><circle cx="105.3" cy="92.3" r="2" fill="#7CA6FF" opacity=".85"/><circle cx="98.6" cy="102.2" r="2" fill="#C4956E" opacity=".85"/><circle cx="88.1" cy="108.6" r="2" fill="#E07A52" opacity=".85"/><circle cx="75.7" cy="110.2" r="2" fill="#8C6BC9" opacity=".85"/><circle cx="63.3" cy="106.5" r="2" fill="#5B6FE8" opacity=".85"/><circle cx="53.3" cy="97.8" r="2" fill="#7CA6FF" opacity=".85"/><circle cx="47.6" cy="85.5" r="2" fill="#C4956E" opacity=".85"/><circle cx="47.4" cy="71.6" r="2" fill="#E07A52" opacity=".85"/><circle cx="53.1" cy="58.6" r="2" fill="#8C6BC9" opacity=".85"/><circle cx="63.8" cy="48.8" r="2" fill="#5B6FE8" opacity=".85"/><circle cx="77.9" cy="44.1" r="2" fill="#7CA6FF" opacity=".85"/><circle cx="93.0" cy="45.6" r="2" fill="#C4956E" opacity=".85"/><circle cx="106.4" cy="53.3" r="2" fill="#E07A52" opacity=".85"/><circle cx="115.7" cy="66.2" r="2" fill="#8C6BC9" opacity=".85"/><circle cx="119.1" cy="82.0" r="2" fill="#5B6FE8" opacity=".85"/><circle cx="115.5" cy="98.1" r="2" fill="#7CA6FF" opacity=".85"/><circle cx="105.6" cy="111.6" r="2" fill="#C4956E" opacity=".85"/><circle cx="90.7" cy="120.0" r="2" fill="#E07A52" opacity=".85"/><circle cx="73.3" cy="121.7" r="2" fill="#8C6BC9" opacity=".85"/><circle cx="56.4" cy="116.0" r="2" fill="#5B6FE8" opacity=".85"/><circle cx="43.2" cy="103.7" r="2" fill="#7CA6FF" opacity=".85"/><circle cx="35.9" cy="86.7" r="2" fill="#C4956E" opacity=".85"/><circle cx="36.3" cy="68.0" r="2" fill="#E07A52" opacity=".85"/><circle cx="44.4" cy="50.7" r="2" fill="#8C6BC9" opacity=".85"/><circle cx="59.1" cy="38.0" r="2" fill="#5B6FE8" opacity=".85"/><circle cx="78.0" cy="32.4" r="2" fill="#7CA6FF" opacity=".85"/><circle cx="97.9" cy="35.0" r="2" fill="#C4956E" opacity=".85"/><circle cx="115.3" cy="45.6" r="2" fill="#E07A52" opacity=".85"/><circle cx="126.9" cy="62.7" r="2" fill="#8C6BC9" opacity=".85"/><circle cx="130.7" cy="83.4" r="2" fill="#5B6FE8" opacity=".85"/><circle cx="125.6" cy="104.2" r="2" fill="#7CA6FF" opacity=".85"/><circle cx="112.2" cy="121.3" r="2" fill="#C4956E" opacity=".85"/><circle cx="92.8" cy="131.6" r="2" fill="#E07A52" opacity=".85"/><circle cx="70.5" cy="133.1" r="2" fill="#8C6BC9" opacity=".85"/><circle cx="49.3" cy="125.3" r="2" fill="#5B6FE8" opacity=".85"/><circle cx="32.8" cy="109.2" r="2" fill="#7CA6FF" opacity=".85"/><circle cx="24.2" cy="87.5" r="2" fill="#C4956E" opacity=".85"/><circle cx="25.3" cy="63.9" r="2" fill="#E07A52" opacity=".85"/><circle cx="36.0" cy="42.5" r="2" fill="#8C6BC9" opacity=".85"/><circle cx="54.8" cy="27.1" r="2" fill="#5B6FE8" opacity=".85"/><circle cx="78.5" cy="20.6" r="2" fill="#7CA6FF" opacity=".85"/><circle cx="103.1" cy="24.5" r="2" fill="#C4956E" opacity=".85"/><circle cx="124.3" cy="38.2" r="2" fill="#E07A52" opacity=".85"/><circle cx="138.3" cy="59.7" r="2" fill="#8C6BC9" opacity=".85"/><circle cx="142.3" cy="85.2" r="2" fill="#5B6FE8" opacity=".85"/><circle cx="135.4" cy="110.6" r="2" fill="#7CA6FF" opacity=".85"/><circle cx="118.6" cy="131.1" r="2" fill="#C4956E" opacity=".85"/><circle cx="94.6" cy="143.2" r="2" fill="#E07A52" opacity=".85"/><circle cx="67.4" cy="144.4" r="2" fill="#8C6BC9" opacity=".85"/><circle cx="41.8" cy="134.3" r="2" fill="#5B6FE8" opacity=".85"/><circle cx="22.3" cy="114.4" r="2" fill="#7CA6FF" opacity=".85"/><circle cx="12.5" cy="88.0" r="2" fill="#C4956E" opacity=".85"/><circle cx="14.4" cy="59.5" r="2" fill="#E07A52" opacity=".85"/><circle cx="27.8" cy="34.0" r="2" fill="#8C6BC9" opacity=".85"/><circle cx="50.8" cy="16.1" r="2" fill="#5B6FE8" opacity=".85"/><circle cx="79.4" cy="8.9" r="2" fill="#7CA6FF" opacity=".85"/><circle cx="108.8" cy="14.1" r="2" fill="#C4956E" opacity=".85"/><circle cx="133.7" cy="31.1" r="2" fill="#E07A52" opacity=".85"/><circle cx="149.7" cy="57.0" r="2" fill="#8C6BC9" opacity=".85"/></g><circle cx="80" cy="80" r="9" fill="#F7D56E"/>
</svg>
