<svg xmlns="http://www.w3.org/2000/svg" viewBox="0 0 160 160">
<rect width="160" height="160" fill="#171613"/><g><rect x="1" y="1" width="14" height="14" rx="2" fill="#5B6FE8" opacity=".9"/><rect x="1" y="17" width="14" height="14" rx="2" fill="#C4956E" opacity=".9"/><rect x="1" y="33" width="14" height="14" rx="2" fill="#E07A52" opacity=".9"/><rect x="1" y="49" width="14" height="14" rx="2" fill="#8C6BC9" opacity=".9"/><rect x="1" y="65" width="14" height="14" rx="2" fill="#4E9F92" opacity=".9"/><rect x="1" y="81" width="14" height="14" rx="2" fill="#5B6FE8" opacity=".9"/><rect x="1" y="97" width="14" height="14" rx="2" fill="#C4956E" opacity=".9"/><rect x="1" y="113" width="14" height="14" rx="2" fill="#E07A52" opacity=".9"/><rect x="1" y="129" width="14" height="14" rx="2" fill="#8C6BC9" opacity=".9"/><rect x="1" y="145" width="14" height="14" rx="2" fill="#4E9F92" opacity=".9"/><rect x="17" y="1" width="14" height="14" rx="2" fill="#C4956E" opacity=".9"/><rect x="17" y="17" width="14" height="14" rx="2" fill="#E07A52" opacity=".9"/><rect x="17" y="33" width="14" height="14" rx="2" fill="#8C6BC9" opacity=".9"/><rect x="17" y="49" width="14" height="14" rx="2" fill="#4E9F92" opacity=".9"/><rect x="17" y="65" width="14" height="14" rx="2" fill="#5B6FE8" opacity=".9"/><rect x="17" y="81" width="14" height="14" rx="2" fill="#C4956E" opacity=".9"/><rect x="17" y="97" width="14" height="14" rx="2" fill="#E07A52" opacity=".9"/><rect x="17" y="113" width="14" height="14" rx="2" fill="#8C6BC9" opacity=".9"/><rect x="17" y="129" width="14" height="14" rx="2" fill="#4E9F92" opacity=".9"/><rect x="17" y="145" width="14" height="14" rx="2" fill="#5B6FE8" opacity=".9"/><rect x="33" y="1" width="14" height="14" rx="2" fill="#E07A52" opacity=".9"/><rect x="33" y="17" width="14" height="14" rx="2" fill="#8C6BC9" opacity=".9"/><rect x="33" y="33" width="14" height="14" rx="2" fill="#4E9F92" opacity=".9"/><rect x="33" y="49" width="14" height="14" rx="2" fill="#5B6FE8" opacity=".9"/><rect x="33" y="65" width="14" height="14" rx="2" fill="#C4956E" opacity=".9"/><rect x="33" y="81" width="14" height="14" rx="2" fill="#E07A52" opacity=".9"/><rect x="33" y="97" width="14" height="14" rx="2" fill="#8C6BC9" opacity=".9"/><rect x="33" y="113" width="14" height="14" rx="2" fill="#4E9F92" opacity=".9"/><rect x="33" y="129" width="14" height="14" rx="2" fill="#5B6FE8" opacity=".9"/><rect x="33" y="145" width="14" height="14" rx="2" fill="#C4956E" opacity=".9"/><rect x="49" y="1" width="14" height="14" rx="2" fill="#8C6BC9" opacity=".9"/><rect x="49" y="17" width="14" height="14" rx="2" fill="#4E9F92" opacity=".9"/><rect x="49" y="33" width="14" height="14" rx="2" fill="#5B6FE8" opacity=".9"/><rect x="49" y="49" width="14" height="14" rx="2" fill="#C4956E" opacity=".9"/><rect x="49" y="65" width="14" height="14" rx="2" fill="#E07A52" opacity=".9"/><rect x="49" y="81" width="14" height="14" rx="2" fill="#8C6BC9" opacity=".9"/><rect x="49" y="97" width="14" height="14" rx="2" fill="#4E9F92" opacity=".9"/><rect x="49" y="113" width="14" height="14" rx="2" fill="#5B6FE8" opacity=".9"/><rect x="49" y="129" width="14" height="14" rx="2" fill="#C4956E" opacity=".9"/><rect x="49" y="145" width="14" height="14" rx="2" fill="#E07A52" opacity=".9"/><rect x="65" y="1" width="14" height="14" rx="2" fill="#4E9F92" opacity=".9"/><rect x="65" y="17" width="14" height="14" rx="2" fill="#5B6FE8" opacity=".9"/><rect x="65" y="33" width="14" height="14" rx="2" fill="#C4956E" opacity=".9"/><rect x="65" y="49" width="14" height="14" rx="2" fill="#E07A52" opacity=".9"/><rect x="65" y="65" width="14" height="14" rx="2" fill="#8C6BC9" opacity=".9"/><rect x="65" y="81" width="14" height="14" rx="2" fill="#4E9F92" opacity=".9"/><rect x="65" y="97" width="14" height="14" rx="2" fill="#5B6FE8" opacity=".9"/><rect x="65" y="113" width="14" height="14" rx="2" fill="#C4956E" opacity=".9"/><rect x="65" y="129" width="14" height="14" rx="2" fill="#E07A52" opacity=".9"/><rect x="65" y="145" width="14" height="14" rx="2" fill="#8C6BC9" opacity=".9"/><rect x="81" y="1" width="14" height="14" rx="2" fill="#5B6FE8" opacity=".9"/><rect x="81" y="17" width="14" height="14" rx="2" fill="#C4956E" opacity=".9"/><rect x="81" y="33" width="14" height="14" rx="2" fill="#E07A52" opacity=".9"/><rect x="81" y="49" width="14" height="14" rx="2" fill="#8C6BC9" opacity=".9"/><rect x="81" y="65" width="14" height="14" rx="2" fill="#4E9F92" opacity=".9"/><rect x="81" y="81" width="14" height="14" rx="2" fill="#5B6FE8" opacity=".9"/><rect x="81" y="97" width="14" height="14" rx="2" fill="#C4956E" opacity=".9"/><rect x="81" y="113" width="14" height="14" rx="2" fill="#E07A52" opacity=".9"/><rect x="81" y="129" width="14" height="14" rx="2" fill="#8C6BC9" opacity=".9"/><rect x="81" y="145" width="14" height="14" rx="2" fill="#4E9F92" opacity=".9"/><rect x="97" y="1" width="14" height="14" rx="2" fill="#C4956E" opacity=".9"/><rect x="97" y="17" width="14" height="14" rx="2" fill="#E07A52" opacity=".9"/><rect x="97" y="33" width="14" height="14" rx="2" fill="#8C6BC9" opacity=".9"/><rect x="97" y="49" width="14" height="14" rx="2" fill="#4E9F92" opacity=".9"/><rect x="97" y="65" width="14" height="14" rx="2" fill="#5B6FE8" opacity=".9"/><rect x="97" y="81" width="14" height="14" rx="2" fill="#C4956E" opacity=".9"/><rect x="97" y="97" width="14" height="14" rx="2" fill="#E07A52" opacity=".9"/><rect x="97" y="113" width="14" height="14" rx="2" fill="#8C6BC9" opacity=".9"/><rect x="97" y="129" width="14" height="14" rx="2" fill="#4E9F92" opacity=".9"/><rect x="97" y="145" width="14" height="14" rx="2" fill="#5B6FE8" opacity=".9"/><rect x="113" y="1" width="14" height="14" rx="2" fill="#E07A52" opacity=".9"/><rect x="113" y="17" width="14" height="14" rx="2" fill="#8C6BC9" opacity=".9"/><rect x="113" y="33" width="14" height="14" rx="2" fill="#4E9F92" opacity=".9"/><rect x="113" y="49" width="14" height="14" rx="2" fill="#5B6FE8" opacity=".9"/><rect x="113" y="65" width="14" height="14" rx="2" fill="#C4956E" opacity=".9"/><rect x="113" y="81" width="14" height="14" rx="2" fill="#E07A52" opacity=".9"/><rect x="113" y="97" width="14" height="14" rx="2" fill="#8C6BC9" opacity=".9"/><rect x="113" y="113" width="14" height="14" rx="2" fill="#4E9F92" opacity=".9"/><rect x="113" y="129" width="14" height="14" rx="2" fill="#5B6FE8" opacity=".9"/><rect x="113" y="145" width="14" height="14" rx="2" fill="#C4956E" opacity=".9"/><rect x="129" y="1" width="14" height="14" rx="2" fill="#8C6BC9" opacity=".9"/><rect x="129" y="17" width="14" height="14" rx="2" fill="#4E9F92" opacity=".9"/><rect x="129" y="33" width="14" height="14" rx="2" fill="#5B6FE8" opacity=".9"/><rect x="129" y="49" width="14" height="14" rx="2" fill="#C4956E" opacity=".9"/><rect x="129" y="65" width="14" height="14" rx="2" fill="#E07A52" opacity=".9"/><rect x="129" y="81" width="14" height="14" rx="2" fill="#8C6BC9" opacity=".9"/><rect x="129" y="97" width="14" height="14" rx="2" fill="#4E9F92" opacity=".9"/><rect x="129" y="113" width="14" height="14" rx="2" fill="#5B6FE8" opacity=".9"/><rect x="129" y="129" width="14" height="14" rx="2" fill="#C4956E" opacity=".9"/><rect x="129" y="145" width="14" height="14" rx="2" fill="#E07A52" opacity=".9"/><rect x="145" y="1" width="14" height="14" rx="2" fill="#4E9F92" opacity=".9"/><rect x="145" y="17" width="14" height="14" rx="2" fill="#5B6FE8" opacity=".9"/><rect x="145" y="33" width="14" height="14" rx="2" fill="#C4956E" opacity=".9"/><rect x="145" y="49" width="14" height="14" rx="2" fill="#E07A52" opacity=".9"/><rect x="145" y="65" width="14" height="14" rx="2" fill="#8C6BC9" opacity=".9"/><rect x="145" y="81" width="14" height="14" rx="2" fill="#4E9F92" opacity=".9"/><rect x="145" y="97" width="14" height="14" rx="2" fill="#5B6FE8" opacity=".9"/><rect x="145" y="113" width="14" height="14" rx="2" fill="#C4956E" opacity=".9"/><rect x="145" y="129" width="14" height="14" rx="2" fill="#E07A52" opacity=".9"/><rect x="145" y="145" width="14" height="14" rx="2" fill="#8C6BC9" opacity=".9"/></g>
</svg>
