<svg xmlns="http://www.w3.org/2000/svg" viewBox="0 0 160 160">
<rect width="160" height="160" fill="#171613"/><g><circle cx="14" cy="20" r="2.0" fill="#C4956E" opacity=".82"/><circle cx="14" cy="32" r="2.8" fill="#C4956E" opacity=".82"/><circle cx="14" cy="44" r="4.1" fill="#4E9F92" opacity=".82"/><circle cx="14" cy="56" r="5.1" fill="#4E9F92" opacity=".82"/><circle cx="14" cy="68" r="5.6" fill="#4E9F92" opacity=".82"/><circle cx="14" cy="80" r="5.7" fill="#4E9F92" opacity=".82"/><circle cx="14" cy="92" r="5.6" fill="#4E9F92" opacity=".82"/><circle cx="14" cy="104" r="5.1" fill="#4E9F92" opacity=".82"/><circle cx="14" cy="116" r="4.1" fill="#4E9F92" opacity=".82"/><circle cx="14" cy="128" r="2.8" fill="#C4956E" opacity=".82"/><circle cx="26" cy="20" r="3.1" fill="#C4956E" opacity=".82"/><circle cx="26" cy="32" r="4.9" fill="#4E9F92" opacity=".82"/><circle cx="26" cy="44" r="5.9" fill="#7CA6FF" opacity=".82"/><circle cx="26" cy="56" r="5.9" fill="#7CA6FF" opacity=".82"/><circle cx="26" cy="68" r="5.5" fill="#7CA6FF" opacity=".82"/><circle cx="26" cy="80" r="5.3" fill="#7CA6FF" opacity=".82"/><circle cx="26" cy="92" r="5.5" fill="#7CA6FF" opacity=".82"/><circle cx="26" cy="104" r="5.9" fill="#7CA6FF" opacity=".82"/><circle cx="26" cy="116" r="5.9" fill="#7CA6FF" opacity=".82"/><circle cx="26" cy="128" r="4.9" fill="#4E9F92" opacity=".82"/><circle cx="38" cy="20" r="4.9" fill="#4E9F92" opacity=".82"/><circle cx="38" cy="32" r="6.0" fill="#7CA6FF" opacity=".82"/><circle cx="38" cy="44" r="5.3" fill="#7CA6FF" opacity=".82"/><circle cx="38" cy="56" r="4.0" fill="#5B6FE8" opacity=".82"/><circle cx="38" cy="68" r="3.0" fill="#5B6FE8" opacity=".82"/><circle cx="38" cy="80" r="2.7" fill="#5B6FE8" opacity=".82"/><circle cx="38" cy="92" r="3.0" fill="#5B6FE8" opacity=".82"/><circle cx="38" cy="104" r="4.0" fill="#5B6FE8" opacity=".82"/><circle cx="38" cy="116" r="5.3" fill="#7CA6FF" opacity=".82"/><circle cx="38" cy="128" r="6.0" fill="#7CA6FF" opacity=".82"/><circle cx="50" cy="20" r="5.9" fill="#7CA6FF" opacity=".82"/><circle cx="50" cy="32" r="5.3" fill="#7CA6FF" opacity=".82"/><circle cx="50" cy="44" r="3.3" fill="#5B6FE8" opacity=".82"/><circle cx="50" cy="56" r="2.1" fill="#C4956E" opacity=".82"/><circle cx="50" cy="68" r="2.1" fill="#C4956E" opacity=".82"/><circle cx="50" cy="80" r="2.3" fill="#C4956E" opacity=".82"/><circle cx="50" cy="92" r="2.1" fill="#C4956E" opacity=".82"/><circle cx="50" cy="104" r="2.1" fill="#C4956E" opacity=".82"/><circle cx="50" cy="116" r="3.3" fill="#5B6FE8" opacity=".82"/><circle cx="50" cy="128" r="5.3" fill="#7CA6FF" opacity=".82"/><circle cx="62" cy="20" r="5.9" fill="#7CA6FF" opacity=".82"/><circle cx="62" cy="32" r="4.0" fill="#5B6FE8" opacity=".82"/><circle cx="62" cy="44" r="2.1" fill="#C4956E" opacity=".82"/><circle cx="62" cy="56" r="2.5" fill="#4E9F92" opacity=".82"/><circle cx="62" cy="68" r="4.0" fill="#4E9F92" opacity=".82"/><circle cx="62" cy="80" r="4.7" fill="#4E9F92" opacity=".82"/><circle cx="62" cy="92" r="4.0" fill="#4E9F92" opacity=".82"/><circle cx="62" cy="104" r="2.5" fill="#4E9F92" opacity=".82"/><circle cx="62" cy="116" r="2.1" fill="#C4956E" opacity=".82"/><circle cx="62" cy="128" r="4.0" fill="#5B6FE8" opacity=".82"/><circle cx="74" cy="20" r="5.5" fill="#7CA6FF" opacity=".82"/><circle cx="74" cy="32" r="3.0" fill="#5B6FE8" opacity=".82"/><circle cx="74" cy="44" r="2.1" fill="#C4956E" opacity=".82"/><circle cx="74" cy="56" r="4.0" fill="#4E9F92" opacity=".82"/><circle cx="74" cy="68" r="5.8" fill="#7CA6FF" opacity=".82"/><circle cx="74" cy="80" r="6.0" fill="#7CA6FF" opacity=".82"/><circle cx="74" cy="92" r="5.8" fill="#7CA6FF" opacity=".82"/><circle cx="74" cy="104" r="4.0" fill="#4E9F92" opacity=".82"/><circle cx="74" cy="116" r="2.1" fill="#C4956E" opacity=".82"/><circle cx="74" cy="128" r="3.0" fill="#5B6FE8" opacity=".82"/><circle cx="86" cy="20" r="5.3" fill="#7CA6FF" opacity=".82"/><circle cx="86" cy="32" r="2.7" fill="#5B6FE8" opacity=".82"/><circle cx="86" cy="44" r="2.3" fill="#C4956E" opacity=".82"/><circle cx="86" cy="56" r="4.7" fill="#4E9F92" opacity=".82"/><circle cx="86" cy="68" r="6.0" fill="#7CA6FF" opacity=".82"/><circle cx="86" cy="80" r="4.0" fill="#5B6FE8" opacity=".82"/><circle cx="86" cy="92" r="6.0" fill="#7CA6FF" opacity=".82"/><circle cx="86" cy="104" r="4.7" fill="#4E9F92" opacity=".82"/><circle cx="86" cy="116" r="2.3" fill="#C4956E" opacity=".82"/><circle cx="86" cy="128" r="2.7" fill="#5B6FE8" opacity=".82"/><circle cx="98" cy="20" r="5.5" fill="#7CA6FF" opacity=".82"/><circle cx="98" cy="32" r="3.0" fill="#5B6FE8" opacity=".82"/><circle cx="98" cy="44" r="2.1" fill="#C4956E" opacity=".82"/><circle cx="98" cy="56" r="4.0" fill="#4E9F92" opacity=".82"/><circle cx="98" cy="68" r="5.8" fill="#7CA6FF" opacity=".82"/><circle cx="98" cy="80" r="6.0" fill="#7CA6FF" opacity=".82"/><circle cx="98" cy="92" r="5.8" fill="#7CA6FF" opacity=".82"/><circle cx="98" cy="104" r="4.0" fill="#4E9F92" opacity=".82"/><circle cx="98" cy="116" r="2.1" fill="#C4956E" opacity=".82"/><circle cx="98" cy="128" r="3.0" fill="#5B6FE8" opacity=".82"/><circle cx="110" cy="20" r="5.9" fill="#7CA6FF" opacity=".82"/><circle cx="110" cy="32" r="4.0" fill="#5B6FE8" opacity=".82"/><circle cx="110" cy="44" r="2.1" fill="#C4956E" opacity=".82"/><circle cx="110" cy="56" r="2.5" fill="#4E9F92" opacity=".82"/><circle cx="110" cy="68" r="4.0" fill="#4E9F92" opacity=".82"/><circle cx="110" cy="80" r="4.7" fill="#4E9F92" opacity=".82"/><circle cx="110" cy="92" r="4.0" fill="#4E9F92" opacity=".82"/><circle cx="110" cy="104" r="2.5" fill="#4E9F92" opacity=".82"/><circle cx="110" cy="116" r="2.1" fill="#C4956E" opacity=".82"/><circle cx="110" cy="128" r="4.0" fill="#5B6FE8" opacity=".82"/><circle cx="122" cy="20" r="5.9" fill="#7CA6FF" opacity=".82"/><circle cx="122" cy="32" r="5.3" fill="#7CA6FF" opacity=".82"/><circle cx="122" cy="44" r="3.3" fill="#5B6FE8" opacity=".82"/><circle cx="122" cy="56" r="2.1" fill="#C4956E" opacity=".82"/><circle cx="122" cy="68" r="2.1" fill="#C4956E" opacity=".82"/><circle cx="122" cy="80" r="2.3" fill="#C4956E" opacity=".82"/><circle cx="122" cy="92" r="2.1" fill="#C4956E" opacity=".82"/><circle cx="122" cy="104" r="2.1" fill="#C4956E" opacity=".82"/><circle cx="122" cy="116" r="3.3" fill="#5B6FE8" opacity=".82"/><circle cx="122" cy="128" r="5.3" fill="#7CA6FF" opacity=".82"/><circle cx="134" cy="20" r="4.9" fill="#4E9F92" opacity=".82"/><circle cx="134" cy="32" r="6.0" fill="#7CA6FF" opacity=".82"/><circle cx="134" cy="44" r="5.3" fill="#7CA6FF" opacity=".82"/><circle cx="134" cy="56" r="4.0" fill="#5B6FE8" opacity=".82"/><circle cx="134" cy="68" r="3.0" fill="#5B6FE8" opacity=".82"/><circle cx="134" cy="80" r="2.7" fill="#5B6FE8" opacity=".82"/><circle cx="134" cy="92" r="3.0" fill="#5B6FE8" opacity=".82"/><circle cx="134" cy="104" r="4.0" fill="#5B6FE8" opacity=".82"/><circle cx="134" cy="116" r="5.3" fill="#7CA6FF" opacity=".82"/><circle cx="134" cy="128" r="6.0" fill="#7CA6FF" opacity=".82"/><circle cx="146" cy="20" r="3.1" fill="#C4956E" opacity=".82"/><circle cx="146" cy="32" r="4.9" fill="#4E9F92" opacity=".82"/><circle cx="146" cy="44" r="5.9" fill="#7CA6FF" opacity=".82"/><circle cx="146" cy="56" r="5.9" fill="#7CA6FF" opacity=".82"/><circle cx="146" cy="68" r="5.5" fill="#7CA6FF" opacity=".82"/><circle cx="146" cy="80" r="5.3" fill="#7CA6FF" opacity=".82"/><circle cx="146" cy="92" r="5.5" fill="#7CA6FF" opacity=".82"/><circle cx="146" cy="104" r="5.9" fill="#7CA6FF" opacity=".82"/><circle cx="146" cy="116" r="5.9" fill="#7CA6FF" opacity=".82"/><circle cx="146" cy="128" r="4.9" fill="#4E9F92" opacity=".82"/></g>
</svg>
